<svg width="1000" height="1000" viewBox="0 0 1000 1000" fill="none" xmlns="http://www.w3.org/2000/svg">
<path d="M0 0H1000V1000H0V0Z" fill="white"/>
<path d="M573.174 315.843C545.974 254.156 530.559 226.431 517.94 216.507C506.368 207.404 487.828 207.914 476.294 217.649C465.62 226.659 456.424 244.569 405.283 355.937C384.223 401.804 359.172 455.931 349.62 476.218C340.065 496.506 317.872 544.474 300.305 582.816C282.734 621.159 267.277 652.554 265.956 652.58C264.634 652.608 263.55 610.452 263.55 558.904V465.178L284.277 485.719L305.004 506.263L316.092 482.422C334.356 443.152 335.337 447.803 301.504 413.226C268.567 379.557 259.74 373.578 242.971 373.578C228.515 373.578 210.427 388.884 205.671 405.15C203.365 413.027 202.563 472.722 203.223 586.877C204.134 743.362 204.67 757.715 209.982 767.44C223.325 791.881 254.932 797.584 273.365 778.875C281.631 770.487 350.291 626.567 459.833 388.012C479.274 345.673 496.219 309.909 497.489 308.54C498.76 307.167 517.546 345.057 539.238 392.737C560.931 440.416 579.624 479.426 580.782 479.426C581.937 479.426 591.861 470.365 602.837 459.292C626.97 434.941 627.461 430.861 610.358 396.762C603.52 383.13 586.786 346.715 573.174 315.843Z" fill="#038190"/>
<path d="M795.72 403.408C793.892 397.763 787.384 388.74 781.254 383.361C772.536 375.705 767.173 373.601 756.591 373.674L756.326 373.676C748.982 373.73 741.774 373.782 736.657 377.174C733.129 379.044 678.13 433.222 614.438 497.564L498.638 614.555L464.006 577.463C444.547 557.998 427.515 540.966 426.491 540.368C422.87 545.611 419.675 553.022 418.225 556.45C400.788 597.663 410.483 598.256 432.16 623.03L501.457 699.14L616.629 582.066L731.797 464.992L731.554 561.217L731.307 657.442L707.475 608.528C694.366 581.626 681.135 559.613 681.135 559.613C676.804 562.643 670.611 568.837 669.062 570.385C641.866 597.581 633.45 601.353 657.509 650.901C678.252 693.617 706.178 754.887 712.655 764.977C725.241 784.594 737.783 791.891 754.943 789.591C770.875 787.455 781.671 780.293 788.304 767.466C792.894 758.591 793.93 735.032 796.31 585.472C798.174 468.386 797.988 410.403 795.72 403.408Z" fill="#038190"/>
</svg>
