<svg width="165" height="101" viewBox="0 0 165 101" fill="none" xmlns="http://www.w3.org/2000/svg">
<path d="M-6.97406e-05 98.4268V1.65875H22.2566V98.4268H-6.97406e-05ZM86.5209 100.086C76.5676 100.086 67.7663 97.966 60.1171 93.7266C52.5599 89.3951 46.6156 83.4968 42.2841 76.0319C37.9526 68.4748 35.7868 59.8117 35.7868 50.0428C35.7868 40.2738 37.9526 31.6568 42.2841 24.1919C46.6156 16.6348 52.5599 10.7365 60.1171 6.49715C67.7663 2.16563 76.5676 -0.000127813 86.5209 -0.000127813C92.6956 -0.000127813 98.2713 0.921471 103.248 2.76467C108.317 4.51571 112.74 6.95795 116.519 10.0914C120.298 13.2248 123.431 16.8191 125.919 20.8741L107.533 31.9333C106.151 29.7215 104.308 27.74 102.004 25.989C99.7919 24.2379 97.3497 22.9016 94.6771 21.98C92.0044 20.9663 89.2857 20.4594 86.5209 20.4594C81.0835 20.4594 76.2451 21.7036 72.0057 24.1919C67.8585 26.6802 64.5868 30.1823 62.1907 34.6981C59.7945 39.1218 58.5964 44.2367 58.5964 50.0428C58.5964 55.8488 59.7484 61.0098 62.0524 65.5256C64.3564 69.9493 67.6742 73.4514 72.0057 76.0319C76.3372 78.6124 81.3599 79.9026 87.0739 79.9026C91.4054 79.9026 95.23 79.0732 98.5478 77.4143C101.866 75.7554 104.492 73.4514 106.427 70.5023C108.363 67.5532 109.33 64.0972 109.33 60.1343L130.481 56.54C130.481 65.9404 128.592 73.9122 124.813 80.4556C121.035 86.9068 115.874 91.7912 109.33 95.109C102.787 98.4268 95.1839 100.086 86.5209 100.086ZM87.2121 62.4844V45.3426H130.481V58.4754L118.04 62.4844H87.2121ZM151.819 100.5C148.317 100.5 145.321 99.2562 142.833 96.7679C140.345 94.2796 139.101 91.2844 139.101 87.7823C139.101 84.3724 140.345 81.4232 142.833 78.9349C145.321 76.4466 148.317 75.2024 151.819 75.2024C155.229 75.2024 158.178 76.4466 160.666 78.9349C163.154 81.4232 164.399 84.3724 164.399 87.7823C164.399 91.2844 163.154 94.2796 160.666 96.7679C158.178 99.2562 155.229 100.5 151.819 100.5Z" fill="black"/>
</svg>
